<svg xmlns="http://www.w3.org/2000/svg" width="30.7mm" height="30.699mm" viewBox="0 0 87.023 87.022"><title>logo_irkfap</title><path d="M43.5,5.027c22.061,0,38.5,16.65,38.5,38.709C82,65.38,65.562,82.027,43.5,82.027S5,65.38,5,43.736C5,21.677,21.439,5.027,43.5,5.027Z" style="fill:#fff"/><path d="M53.876,40.559l7.869-9.35-16.66-2.74L30.525,45.9l11.111,9.36,6.75-8.02L64.345,61.3c-11.18,9.354-28.511,10.27-40.28,1.34l-6.507,7.785C-1.743,51.812,4.864,16.929,31.039,8.517c14.3-4.35,30.065-.053,39.136,11.827,6.664,9.823,6.708,23.414.5,33.645Z" style="fill:red"/></svg>