<svg xmlns="http://www.w3.org/2000/svg" width="31mm" height="31mm" viewBox="0 0 87.873 87.874"><title>logo-cutout</title><path d="M43.936,2.835c-23.552,0-41.1,17.773-41.1,41.326,0,23.106,17.55,40.879,41.1,40.879s41.1-17.773,41.1-40.879C85.039,20.608,67.489,2.835,43.936,2.835ZM71.11,54.4l-16.8-13.431,7.87-9.35-16.66-2.74L30.961,46.309l11.11,9.36,6.75-8.02L64.78,61.708C53.6,71.064,36.27,71.979,24.5,63.048l-6.508,7.785C-1.308,52.222,5.3,17.339,31.475,8.927c14.3-4.35,30.065-.053,39.135,11.826C77.274,30.577,77.318,44.167,71.11,54.4Z" style="fill:red"/></svg>