<svg enable-background="new 0 0 283.465 127.559" viewBox="0 0 283.465 127.559" xmlns="http://www.w3.org/2000/svg"><path d="m-2.835-2.835h289.134v133.228h-289.134z" fill="#f00"/><path d="m24.603 48.297c-7.978 21.684 2.355 44.424 24.459 52.557s44.712-2.488 52.69-24.172c8.133-22.104-2.2-44.844-24.305-52.977s-44.711 2.488-52.844 24.592z" fill="#fff"/><path d="m46.227 31.311c12.614-8.016 28.894-6.605 40.812 2.415 21.66 16.933 15.816 51.952-8.724 62.754l-3.419-9.553c-14.129 4.319-30.078-2.525-37.339-15.166l19.832-7.683 3.566 9.857 13.659-4.947-7.646-21.388-16.582-3.181 4.157 11.492-20.403 6.804c-2.293-11.746 2.441-24.485 12.087-31.404z" fill="#f00"/><g fill="#fff"><path d="m108.736 83.279v-.792c2.207-.144 3.672-.371 4.393-.684.72-.312 1.079-.852 1.079-1.62v-41.4c0-.384-.035-.672-.107-.864-.072-.19-.277-.407-.612-.647-.432-.24-1.08-.612-1.944-1.116-.863-.504-1.584-.875-2.159-1.116v-.432l10.296-3.384h.504v49.319c0 .48.107.841.324 1.08.216.241.54.408.972.504.432.097.983.156 1.656.181.671.024 1.463.084 2.376.18v.792h-16.778z"/><path d="m155.823 75.899c-.673 1.32-1.584 2.532-2.736 3.636-1.151 1.104-2.532 2.017-4.14 2.736-1.608.72-3.396 1.08-5.364 1.08-2.447 0-4.68-.456-6.695-1.368-2.017-.911-3.733-2.196-5.148-3.853-1.416-1.655-2.509-3.6-3.276-5.832-.768-2.231-1.151-4.595-1.151-7.092 0-2.016.359-4.02 1.08-6.012.72-1.991 1.739-3.78 3.06-5.364 1.319-1.584 2.928-2.867 4.824-3.852 1.896-.983 3.996-1.477 6.3-1.477 1.872 0 3.636.241 5.292.721s3.096 1.213 4.32 2.195c1.224.984 2.22 2.221 2.988 3.708.767 1.488 1.224 3.24 1.367 5.256h-23.111c0 .385-.025.828-.072 1.332-.049.505-.072 1.021-.072 1.549 0 2.016.288 3.948.864 5.796s1.415 3.48 2.52 4.896c1.104 1.417 2.496 2.532 4.177 3.349 1.68.816 3.623 1.224 5.832 1.224 2.399 0 4.5-.612 6.3-1.836s2.988-2.724 3.563-4.5l.576.144c-.194 1.056-.626 2.245-1.298 3.564zm-8.244-24.264c-1.224-1.271-2.868-1.908-4.932-1.908-1.345 0-2.556.396-3.636 1.188s-2.017 1.717-2.809 2.772c-.792 1.057-1.403 2.124-1.836 3.204-.432 1.08-.696 1.907-.792 2.483h2.952s1.716-.011 2.556-.036c.84-.023 1.716-.047 2.628-.071.912-.023 1.92-.036 3.024-.036.72 0 1.392-.023 2.016-.072.624-.047 1.176-.168 1.656-.36.335-.383.587-.743.756-1.079.168-.336.252-.84.252-1.513.001-1.776-.61-3.3-1.835-4.572z"/><path d="m192.435 50.159c-.697.097-1.404.277-2.124.54-.721.265-1.394.66-2.017 1.188-.624.528-1.128 1.224-1.512 2.088-.576 1.344-1.236 2.928-1.98 4.752s-1.524 3.744-2.34 5.76-1.62 4.032-2.412 6.048c-.792 2.017-1.524 3.864-2.195 5.544-.385.864-.709 1.597-.973 2.196-.264.601-.516 1.164-.756 1.692s-.468 1.032-.684 1.512-.468 1.032-.756 1.656c-.145.287-.385.432-.721.432-.192 0-.336-.061-.432-.18-.097-.12-.169-.228-.216-.324-.769-1.968-1.488-3.827-2.16-5.58-.673-1.752-1.368-3.552-2.088-5.4-.72-1.847-1.488-3.827-2.304-5.939-.817-2.112-1.729-4.488-2.736-7.128-.145-.384-.349-.9-.612-1.548-.265-.648-.54-1.332-.828-2.053-.288-.72-.576-1.415-.863-2.088-.288-.672-.553-1.224-.792-1.656-.288-.288-.732-.611-1.332-.972-.602-.36-1.692-.587-3.276-.684v-.792h17.352v.792c-.432.048-.972.107-1.619.18-.648.072-1.261.18-1.837.324-.575.144-1.068.349-1.476.611-.408.265-.612.661-.612 1.188 0 .24.155.816.469 1.728.312.913.72 2.041 1.224 3.385s1.067 2.832 1.692 4.464c.623 1.632 1.26 3.265 1.907 4.896.648 1.633 1.284 3.217 1.908 4.752.623 1.537 1.152 2.88 1.584 4.032.72-1.775 1.56-3.888 2.521-6.336.959-2.448 1.872-4.848 2.735-7.2.864-2.351 1.596-4.415 2.196-6.191.6-1.775.9-2.88.9-3.312 0-.672-.181-1.188-.54-1.548-.36-.36-.805-.612-1.332-.756-.529-.145-1.08-.216-1.656-.216s-1.08-.024-1.512-.072v-.72h13.968v.792c-.479-.001-1.067.047-1.763.143z"/><path d="m220.478 75.899c-.673 1.32-1.584 2.532-2.736 3.636-1.151 1.104-2.532 2.017-4.14 2.736-1.608.72-3.396 1.08-5.364 1.08-2.447 0-4.68-.456-6.695-1.368-2.017-.911-3.733-2.196-5.148-3.853-1.416-1.655-2.509-3.6-3.276-5.832-.768-2.231-1.151-4.595-1.151-7.092 0-2.016.359-4.02 1.08-6.012.72-1.991 1.739-3.78 3.06-5.364 1.319-1.584 2.928-2.867 4.824-3.852 1.896-.983 3.996-1.477 6.3-1.477 1.872 0 3.636.241 5.292.721s3.096 1.213 4.32 2.195c1.224.984 2.22 2.221 2.988 3.708.767 1.488 1.224 3.24 1.367 5.256h-23.111c0 .385-.025.828-.072 1.332-.049.505-.072 1.021-.072 1.549 0 2.016.288 3.948.864 5.796s1.415 3.48 2.52 4.896c1.104 1.417 2.496 2.532 4.177 3.349 1.68.816 3.623 1.224 5.832 1.224 2.399 0 4.5-.612 6.3-1.836s2.988-2.724 3.563-4.5l.576.144c-.194 1.056-.626 2.245-1.298 3.564zm-8.244-24.264c-1.224-1.271-2.868-1.908-4.932-1.908-1.345 0-2.556.396-3.636 1.188s-2.017 1.717-2.809 2.772c-.792 1.057-1.403 2.124-1.836 3.204-.432 1.08-.696 1.907-.792 2.483h2.952s1.716-.011 2.556-.036c.84-.023 1.716-.047 2.628-.071.912-.023 1.92-.036 3.024-.036.72 0 1.392-.023 2.016-.072.624-.047 1.176-.168 1.656-.36.335-.383.587-.743.756-1.079.168-.336.252-.84.252-1.513.001-1.776-.61-3.3-1.835-4.572z"/><path d="m245.534 83.279v-.792c1.296-.096 2.328-.252 3.097-.468.767-.216 1.151-.708 1.151-1.477v-18.143c0-2.783-.528-5.027-1.584-6.732-1.057-1.703-2.833-2.556-5.328-2.556-1.584 0-2.904.336-3.96 1.008-1.056.673-2.231 1.656-3.527 2.952v23.616c.095.48.263.828.504 1.044.239.216.527.372.863.468.336.097.721.156 1.152.18.432.025.888.085 1.368.181v.72h-13.896v-.72c1.104-.096 2.053-.312 2.845-.648.792-.335 1.188-.888 1.188-1.656v-24.769c0-.384-.036-.672-.107-.864-.072-.191-.277-.407-.612-.647-.432-.24-.937-.516-1.512-.828-.576-.312-1.152-.588-1.729-.828v-.432l9.432-3.385h.433v7.776l.144.072c.526-.815 1.184-1.692 1.974-2.628.788-.937 1.686-1.788 2.689-2.557 1.005-.767 2.105-1.403 3.301-1.907 1.195-.505 2.439-.757 3.73-.757 2.774 0 4.903 1.033 6.386 3.097 1.482 2.064 2.225 4.729 2.225 7.991v21.169c0 .336.155.624.468.863.312.241.684.421 1.116.54.432.12.899.216 1.403.288s.973.133 1.404.18v.648h-14.618z"/></g></svg>