<svg xmlns="http://www.w3.org/2000/svg" width="77" height="77"><path fill="#FFF" d="M38.5 0C60.562 0 77 16.649 77 38.709 77 60.353 60.562 77 38.5 77S0 60.353 0 38.709C0 16.649 16.438 0 38.5 0z"/><path fill="red" d="M48.875 35.531l7.869-9.35-16.66-2.74-14.56 17.431 11.11 9.359 6.75-8.02 15.959 14.06c-6 5.021-12.77 7.53-20.319 7.53-7.87 0-14.53-2.07-19.96-6.19l-6.721 8.04c-6.799-6.64-10.899-16.149-10.899-26.95 0-17.01 9.79-30.68 24.2-35.409.16-.051.33-.11.5-.16.01 0 .029-.01.04-.01 3.39-1.061 7.04-1.62 10.86-1.62 11.709 0 21.709 5.27 28.109 13.779.02.021.04.051.04.07 3.41 5.03 5.12 10.75 5.12 17.16 0 5.86-1.54 11.34-4.641 16.45l-16.797-13.43z"/></svg>